<?xml version="1.0" encoding="utf-8"?>
<!-- Generator: Adobe Illustrator 18.0.0, SVG Export Plug-In . SVG Version: 6.00 Build 0)  -->
<!DOCTYPE svg PUBLIC "-//W3C//DTD SVG 1.1//EN" "http://www.w3.org/Graphics/SVG/1.1/DTD/svg11.dtd">
<svg version="1.1" id="Layer_1" xmlns="http://www.w3.org/2000/svg" xmlns:xlink="http://www.w3.org/1999/xlink" x="0px" y="0px"
	 viewBox="1018.2 678.8 261 140.8" enable-background="new 1018.2 678.8 261 140.8" xml:space="preserve">
<linearGradient id="SVGID_1_" gradientUnits="userSpaceOnUse" x1="638.7" y1="796.4483" x2="638.7" y2="801.4948" gradientTransform="matrix(4.9231 0 0 4.9231 -1995.6693 -3126.1609)">
	<stop  offset="0" style="stop-color:#282828"/>
	<stop  offset="1" style="stop-color:#282828;stop-opacity:0"/>
</linearGradient>
<rect x="1018.2" y="794.1" opacity="0.7" fill="url(#SVGID_1_)" enable-background="new    " width="261" height="25.5"/>
<linearGradient id="SVGID_2_" gradientUnits="userSpaceOnUse" x1="638.7" y1="16.5244" x2="638.7" y2="11.478" gradientTransform="matrix(4.9231 0 0 4.9231 -1995.6693 622.2053)">
	<stop  offset="0" style="stop-color:#282828"/>
	<stop  offset="1" style="stop-color:#282828;stop-opacity:0"/>
</linearGradient>
<rect x="1018.2" y="678.8" opacity="0.7" fill="url(#SVGID_2_)" enable-background="new    " width="261" height="25.5"/>
<path fill="#FFFFFF" d="M1260.1,692.8c0.2,0,0.6-0.1,0.8-0.3l4.4-4.4l4.4,4.4c0.2,0.2,0.4,0.3,0.8,0.3c0.4,0,0.6-0.1,0.8-0.3
	c0.4-0.4,0.4-1.1,0-1.4l-5.2-5.2c-0.4-0.4-1.1-0.4-1.4,0l-5.2,5.2c-0.4,0.4-0.4,1.1,0,1.4C1259.5,692.7,1259.9,692.8,1260.1,692.8z"
	/>
<path fill="#FFFFFF" d="M1259.4,807.2c-0.4,0.4-0.4,1.1,0,1.4l5.2,5.2c0.4,0.4,1.1,0.4,1.4,0l5.2-5.2c0.4-0.4,0.4-1.1,0-1.4
	c-0.2-0.2-0.4-0.3-0.8-0.3s-0.6,0.1-0.8,0.3l-4.4,4.4l-4.4-4.4c-0.2-0.2-0.4-0.3-0.8-0.3C1259.7,806.8,1259.5,807,1259.4,807.2z"/>
<line fill="none" stroke="#FFFFFF" stroke-miterlimit="10" stroke-dasharray="1,1" x1="1279.2" y1="704.7" x2="1020.2" y2="704.7"/>
<line fill="none" stroke="#FFFFFF" stroke-miterlimit="10" stroke-dasharray="1,1" x1="1279" y1="794.2" x2="1018.2" y2="794.1"/>
</svg>
